<?xml version="1.0" encoding="UTF-8"?>
<svg width="284pt" height="257pt" version="1.0" viewBox="0 0 284 257" xmlns="http://www.w3.org/2000/svg">
 <g transform="matrix(.1 0 0 -.1 10.711 255.47)" fill="#fff">
  <path d="m890 2480c-116-20-274-104-348-184-80-87-76-62-74-516 1-223 5-539 8-703 6-269 9-300 25-321 11-13 267-176 571-362 593-364 591-363 643-314l25 23v724c0 677-1 724-18 741-9 9-255 147-545 306l-528 289 32 33c33 35 125 87 172 98 15 4 45 2 65-4 57-15 1034-528 1060-557l22-24v-1351l29-29c17-16 40-29 54-29 37 0 146 84 163 126 12 29 14 139 12 724-3 674-3 690-23 709-28 28-1181 610-1230 621-45 11-52 11-115 0z" fill="#fff"/>
 </g>
</svg>
