<?xml version="1.0" encoding="UTF-8"?>
<svg id="svg" width="196.3" height="196.54" version="1.1" viewBox="0 0 196.3 196.54" xmlns="http://www.w3.org/2000/svg">
 <g id="svgg" transform="translate(-102 -101.91)" fill-rule="evenodd">
  <path d="m194.08 206.86c-0.038 0.037 0.086-0.0634-0.29659-0.17349 0.22444 0.11458 0.3259-0.0527 0.3576 0.23928-0.38946-0.25772 0.50929-0.45747 0.0533-1e-3m-58.336-98.77c3.386 3.387 6.093 6.222 6.015 6.3-0.077 0.078-0.013 0.14 0.143 0.138 0.272-2e-3 26.044 25.749 26.07 26.05 7e-3 0.08 1.196 1.25 2.643 2.6 1.446 1.349 3.752 3.623 5.123 5.053s2.969 3.095 3.549 3.7c0.581 0.605 0.931 0.923 0.777 0.706-0.153-0.216 2.194 2.079 5.216 5.1 3.023 3.022 5.543 5.494 5.6 5.494 0.058 0 0.083 0.067 0.055 0.15-0.027 0.082 0.018 0.127 0.1 0.1 0.083-0.028 0.169 0.021 0.193 0.107 0.056 0.205 0.474 0.584 0.965 0.874 0.216 0.128 0.373 0.319 0.35 0.427-0.023 0.107 0.15 0.363 0.384 0.568 0.28 0.245 0.369 0.27 0.26 0.074-0.092-0.165 0.052-0.075 0.32 0.2s0.8 0.81 1.182 1.189c0.383 0.38 0.561 0.624 0.396 0.543s-0.132-0.031 0.074 0.111c0.378 0.259 1.036 0.913 1.677 1.666 0.192 0.226 0.263 0.271 0.158 0.1-0.105-0.17 0.346 0.254 1.001 0.941 0.656 0.687 1.309 1.25 1.453 1.25 0.143 0 0.211 0.081 0.15 0.179-0.194 0.314 0.448 0.409 0.701 0.104 0.134-0.161 0.289-0.246 0.346-0.19 0.057 0.057 0.567-0.391 1.133-0.995 0.567-0.604 1.133-1.098 1.257-1.098 0.125 0 0.377-0.253 0.56-0.562 0.182-0.31 0.588-0.735 0.9-0.945s0.535-0.414 0.495-0.454c-0.099-0.1 0.73-1.039 0.916-1.039 0.245 0 2.706-2.471 2.843-2.855 0.07-0.195 0.284-0.414 0.476-0.488s2.898-2.682 6.014-5.795c3.116-3.114 5.737-5.662 5.825-5.662 0.186 0 0.786-0.632 0.807-0.85 8e-3 -0.082 0.075-0.172 0.149-0.2s0.772-0.725 1.55-1.55 2.863-2.895 4.633-4.6 3.197-3.145 3.17-3.2c-0.026-0.055 5.411-5.547 12.082-12.205l12.13-12.104-10.4 10.504-10.4 10.505 10.55-10.499c5.803-5.775 10.55-10.597 10.55-10.715 0-0.119 0.248-0.434 0.55-0.701l0.55-0.485-1 1.2 0.55-0.485c0.303-0.267 0.55-0.588 0.55-0.715s0.247-0.448 0.55-0.715l0.55-0.485-1 1.2 0.55-0.485c0.303-0.267 0.55-0.582 0.55-0.701s2.788-3.004 6.196-6.41l6.197-6.194 0.953 0.891c2.843 2.657 15.818 15.696 15.742 15.819-0.049 0.079 2.351 2.529 5.334 5.443s5.391 5.388 5.351 5.498c-0.116 0.316-42.65 43.012-42.811 42.974-0.079-0.019-1.341 1.236-2.803 2.789-1.463 1.553-3.109 3.23-3.659 3.726s-1.428 1.284-1.95 1.751c-0.522 0.468-0.95 0.928-0.95 1.023 0 0.096-2.047 2.238-4.55 4.761-2.503 2.524-4.713 4.821-4.912 5.106-0.2 0.284-0.438 0.471-0.531 0.413-0.092-0.057-0.36 0.223-0.596 0.622-0.235 0.398-0.484 0.668-0.553 0.599-0.19-0.19-0.868 0.498-0.722 0.733 0.069 0.112 0.041 0.152-0.062 0.088s-0.396 0.189-0.652 0.562c-0.255 0.373-0.625 0.73-0.822 0.792s-0.57 0.425-0.829 0.805c-0.259 0.381-0.516 0.695-0.571 0.698s-0.325 0.192-0.6 0.419-0.365 0.345-0.2 0.262-0.3 0.427-1.034 1.133c-1.054 1.014-1.284 1.338-1.1 1.546 0.129 0.144 0.819 0.86 1.534 1.59s1.165 1.257 1 1.172c-0.325-0.168-0.193-0.043 0.819 0.775 0.273 0.22 0.65 0.623 0.838 0.895 0.189 0.271 0.343 0.425 0.343 0.341 0-0.223 0.868 0.663 1.377 1.407 0.243 0.354 0.684 0.765 0.982 0.914 0.297 0.148 0.518 0.376 0.491 0.506-0.028 0.131 0.1 0.237 0.283 0.237 0.184 0 0.274 0.059 0.202 0.132-0.073 0.073 0.061 0.23 0.297 0.35s0.528 0.394 0.648 0.61c0.121 0.216 2.492 2.662 5.27 5.437 2.778 2.774 5.05 5.123 5.05 5.218 0 0.311 1.321 1.465 1.495 1.307 0.093-0.085 0.11-0.051 0.039 0.074-0.072 0.126 0.071 0.361 0.318 0.523 0.585 0.384 5.633 5.392 8.517 8.449 1.246 1.32 2.325 2.405 2.398 2.411 0.159 0.013 37.806 37.724 38.053 38.117 0.188 0.301-12.296 12.972-12.781 12.972-0.144 0-0.207 0.09-0.139 0.2 0.068 0.111-0.112 0.29-0.4 0.4s-0.479 0.273-0.423 0.362c0.088 0.143-5.039 5.318-11.428 11.537l-2.052 1.996-6.748-6.721c-3.712-3.697-6.912-6.778-7.112-6.846-0.199-0.069-0.306-0.217-0.237-0.328 0.069-0.112-0.083-0.287-0.337-0.389-0.255-0.102-0.374-0.191-0.264-0.198 0.305-0.02-12.557-12.813-12.881-12.813-0.157 0-0.222-0.063-0.145-0.14 0.175-0.175-4.472-4.86-4.82-4.86-0.139 0-0.231-0.105-0.203-0.234 0.027-0.128-0.175-0.352-0.45-0.497s-0.414-0.264-0.308-0.266c0.105-2e-3 -0.206-0.408-0.692-0.903s-1.015-0.9-1.175-0.9-0.228-0.064-0.15-0.141c0.185-0.185-17.287-17.659-17.657-17.659-0.157 0-0.224-0.06-0.151-0.134 0.187-0.187-0.465-0.866-0.831-0.866-0.167 0-0.239-0.063-0.162-0.141 0.185-0.185-8.085-8.459-8.456-8.459-0.156 0-0.221-0.063-0.144-0.141 0.155-0.155-7.448-7.853-7.772-7.869-0.111-6e-3 -16.049 15.892-35.418 35.327l-35.216 35.338-2.484-2.371c-4.416-4.215-11.363-11.146-11.323-11.297 0.021-0.081-0.015-0.133-0.08-0.117-0.255 0.064-0.77-0.527-0.647-0.743 0.072-0.125 0.052-0.156-0.043-0.069-0.185 0.168-13.091-12.613-13.091-12.965 0-0.114 8.933-9.114 19.85-19.998 10.918-10.884 19.535-19.426 19.15-18.984-0.385 0.443-0.212 0.307 0.384-0.303 3.102-3.172 9.529-9.635 9.616-9.669 0.055-0.021 0.075-0.113 0.045-0.204s0.033-0.11 0.141-0.043c0.108 0.066 0.349-0.112 0.536-0.397s2.792-2.982 5.789-5.993 5.398-5.526 5.336-5.589c-0.063-0.062 0.036-0.113 0.22-0.113 0.183 0 0.333-0.14 0.333-0.312 0-0.171 0.077-0.264 0.171-0.206s0.386-0.131 0.65-0.42c0.263-0.29 0.344-0.45 0.179-0.356-0.26 0.148-0.263 0.125-0.021-0.172 0.153-0.189 0.321-0.3 0.374-0.248 0.133 0.133 1.74-1.504 1.904-1.939 0.073-0.194 0.36-0.439 0.638-0.545s0.505-0.245 0.505-0.309-0.106-0.051-0.236 0.029c-0.129 0.08 0.901-0.987 2.29-2.372l2.524-2.517-1.139-1.184c-0.626-0.651-1.277-1.356-1.445-1.567-0.169-0.212-0.619-0.641-1-0.954-0.382-0.313-0.581-0.509-0.444-0.437 0.138 0.073 0.25 0.08 0.25 0.016s-0.227-0.203-0.505-0.309-0.564-0.351-0.635-0.545c-0.163-0.442-1.104-1.36-1.325-1.293-0.091 0.027-0.115-0.03-0.055-0.128 0.117-0.19-0.633-0.967-0.851-0.882-0.071 0.028-0.129-0.06-0.129-0.194s-0.225-0.359-0.5-0.5c-0.275-0.14-0.478-0.345-0.45-0.456 0.027-0.11-0.085-0.2-0.25-0.2s-0.3-0.09-0.3-0.201c0-0.11-2.373-2.582-5.273-5.493-2.901-2.911-5.239-5.328-5.196-5.371s-0.076-0.203-0.265-0.356c-0.297-0.242-0.32-0.239-0.172 0.021 0.093 0.165 0.13 0.255 0.082 0.2-0.795-0.898-6.617-6.787-6.699-6.776-0.224 0.029-1.277-1.104-1.277-1.373 0-0.151-0.084-0.223-0.186-0.16s-0.241-0.044-0.308-0.238c-0.068-0.194-0.615-0.754-1.215-1.244s-1.091-0.991-1.091-1.113-0.292-0.486-0.65-0.809l-0.65-0.587 0.597 0.7c0.328 0.385-0.015 0.115-0.761-0.6s-1.723-1.772-2.171-2.35c-0.447-0.577-0.953-1.05-1.123-1.05s-0.246-0.063-0.17-0.139c0.185-0.185-2.28-2.661-2.65-2.661-0.159 0-0.226-0.063-0.148-0.14 0.185-0.186-5.285-5.66-5.655-5.66-0.157 0-0.223-0.062-0.147-0.138 0.185-0.185-1.679-2.062-2.048-2.062-0.16 0-0.228-0.063-0.151-0.139 0.185-0.185-2.682-3.061-3.051-3.061-0.159 0-0.225-0.064-0.148-0.141 0.186-0.185-13.086-13.459-13.456-13.459-0.157 0-0.223-0.062-0.148-0.137 0.186-0.185-1.074-1.463-1.443-1.463-0.161 0-0.243-0.051-0.18-0.113 0.062-0.063-0.44-0.625-1.117-1.25-0.676-0.626-2.009-1.947-2.961-2.937l-1.731-1.8 6.831-6.895c3.757-3.792 6.606-6.627 6.331-6.3l-0.5 0.595 0.55-0.485c0.303-0.267 0.55-0.588 0.55-0.715s0.247-0.448 0.55-0.715l0.55-0.485-1 1.2 0.55-0.485c0.303-0.267 0.55-0.582 0.55-0.701 0-0.287 10.686-10.961 10.83-10.818 0.061 0.061 0.462-0.287 0.89-0.773 0.429-0.487 0.826-0.894 0.881-0.904 0.056-0.011 2.872 2.753 6.258 6.14m-13.46 0.991-5.299 5.35 5.35-5.299c4.972-4.923 5.44-5.401 5.299-5.401-0.029 0-2.436 2.408-5.35 5.35m139.3 2.1-3.198 3.25 3.25-3.198c3.019-2.97 3.34-3.302 3.198-3.302-0.029 0-1.492 1.463-3.25 3.25m19.502 1.25c1.041 1.045 1.937 1.9 1.992 1.9s-0.751-0.855-1.792-1.9-1.937-1.9-1.992-1.9 0.751 0.855 1.792 1.9m4.1 4.1c1.096 1.1 2.037 2 2.092 2s-0.796-0.9-1.892-2-2.037-2-2.092-2 0.796 0.9 1.892 2m-53.213 24.25-0.587 0.65 0.65-0.587c0.606-0.548 0.742-0.713 0.587-0.713-0.034 0-0.327 0.293-0.65 0.65m-112.09 112.1-17.9 17.95 17.95-17.9c9.872-9.844 17.95-17.922 17.95-17.95 0-0.14-1.36 1.213-18 17.9m-13.9 22.05c2.198 2.2 4.041 4 4.096 4s-1.698-1.8-3.896-4-4.041-4-4.096-4 1.698 1.8 3.896 4" fill="#cf3a4e"/>
  <path d="m135.5 108.2c3.409 3.41 6.288 6.2 6.398 6.2s-2.589-2.79-5.998-6.2-6.288-6.2-6.398-6.2 2.589 2.79 5.998 6.2m129.05-0.049c-3.382 3.383-6.149 6.225-6.149 6.316 0 0.09 0.215-0.092 0.478-0.405 0.263-0.312 3.076-3.097 6.25-6.187l5.772-5.62 6.3 6.179c3.465 3.398 7.204 7.053 8.309 8.122 1.106 1.069-1.7-1.768-6.235-6.306-4.535-4.537-8.32-8.25-8.411-8.25s-2.932 2.768-6.314 6.151m-142.24 0.841c-2.965 2.966-5.349 5.419-5.299 5.45 0.05 0.032 2.519-2.395 5.487-5.392s5.352-5.45 5.299-5.45c-0.054 0-2.523 2.427-5.487 5.392m-6.107 6.107c-0.258 0.275-0.431 0.533-0.385 0.574s0.293-0.184 0.549-0.499c0.573-0.706 0.472-0.752-0.164-0.075m37.9 11.714c6.709 6.717 12.604 12.558 13.099 12.981 0.495 0.422-4.905-5.075-12-12.216-7.095-7.14-12.99-12.982-13.099-12.98-0.11 1e-3 5.29 5.498 12 12.215m103.5-11.714c-0.258 0.275-0.431 0.533-0.385 0.574s0.293-0.184 0.549-0.499c0.573-0.706 0.472-0.752-0.164-0.075m-148.83 7.56-6.731 6.841 1.731 1.8c0.952 0.99 2.271 2.291 2.931 2.892s-0.082-0.21-1.649-1.802l-2.85-2.894 5.913-5.898c5.077-5.065 7.719-7.825 7.455-7.789-0.038 6e-3 -3.098 3.088-6.8 6.85m147.63-6.36c-0.258 0.275-0.431 0.533-0.385 0.574s0.293-0.184 0.549-0.499c0.573-0.706 0.472-0.752-0.164-0.075m-12.911 12.948c-6.704 6.736-11.83 11.928-11.39 11.54 1.034-0.914 23.799-23.787 23.675-23.787-0.052 0-5.58 5.511-12.285 12.247m53.01-1.447c0.875 0.88 1.636 1.6 1.691 1.6s-0.616-0.72-1.491-1.6-1.636-1.6-1.691-1.6 0.616 0.72 1.491 1.6m-19.754 23.158c-11.74 11.746-21.346 21.423-21.346 21.504s3.181-3.027 7.069-6.907c11.346-11.324 35.811-35.955 35.713-35.955-0.049 0-9.696 9.611-21.436 21.358m-102.95-4.501c2.585 2.609 4.736 4.743 4.781 4.743 0.194 0-5.393-5.672-7.779-7.9-0.935-0.872 0.414 0.548 2.998 3.157m52.857-0.207c-4.627 4.637-4.348 4.35-4.237 4.35 0.047 0 1.974-1.89 4.282-4.2s4.151-4.2 4.097-4.2c-0.055 0-1.919 1.823-4.142 4.05m-35.855 16.833c0 0.211 0.602 0.781 0.711 0.673 0.05-0.051-0.089-0.255-0.31-0.455-0.22-0.2-0.401-0.298-0.401-0.218m18.196 0.422c-0.139 0.167-0.213 0.345-0.164 0.394s0.241-0.088 0.427-0.305c0.185-0.217 0.259-0.394 0.164-0.394-0.096 0-0.288 0.137-0.427 0.305m-70.249 2.795c0.452 0.55 1.34 1.495 1.974 2.1l1.153 1.1-1.02-1.2c-0.562-0.66-1.45-1.605-1.974-2.1l-0.954-0.9 0.821 1m54.453-0.83c0 0.223 1.447 1.741 1.881 1.973 0.238 0.128 0.119-0.069-0.278-0.46-0.382-0.376-0.899-0.899-1.149-1.162-0.25-0.264-0.454-0.422-0.454-0.351m12.237 1.63c-0.239 0.275-0.367 0.498-0.286 0.497 0.221-6e-3 1.122-0.997 0.906-0.997-0.102 0-0.381 0.225-0.62 0.5m-9.437 1.4c0.661 0.682 0.8 0.789 0.8 0.615 0-0.133-1.217-1.315-1.355-1.315-0.068 0 0.182 0.315 0.555 0.7m8.5-0.341c-0.22 0.191-0.531 0.525-0.691 0.744-0.161 0.218 0.042 0.087 0.45-0.292 0.666-0.62 0.842-0.824 0.691-0.804-0.027 3e-3 -0.23 0.162-0.45 0.352m-62.5 1.391c0 0.083 0.473 0.547 1.05 1.033l1.05 0.882-0.992-1.032c-1.029-1.071-1.108-1.134-1.108-0.883m58.406 2.343c-0.138 0.166-0.354 0.245-0.479 0.175-0.131-0.073-0.121-0.012 0.024 0.144 0.211 0.227 0.307 0.216 0.589-0.066 0.185-0.185 0.287-0.386 0.227-0.446-0.061-0.06-0.223 0.027-0.361 0.193m-55.606 0.436c0 0.108 0.293 0.461 0.65 0.784l0.65 0.587-0.6-0.699c-0.33-0.384-0.622-0.737-0.65-0.783-0.028-0.047-0.05 3e-3 -0.05 0.111m105.9 4.708c-3.137 3.175-3.784 3.934-1.387 1.628 1.541-1.483 4.789-4.865 4.673-4.865-0.049 0-1.528 1.457-3.286 3.237m-101 0.163c1.648 1.704 3.032 3.144 3.074 3.2 0.042 0.055-0.019-0.08-0.137-0.3s-1.501-1.66-3.074-3.2l-2.86-2.8 2.997 3.1m88.984 12.05-0.587 0.65 0.65-0.587c0.606-0.548 0.742-0.713 0.587-0.713-0.034 0-0.327 0.293-0.65 0.65m-76.487 0.613c0 0.034 0.293 0.327 0.65 0.65l0.65 0.587-0.587-0.65c-0.548-0.606-0.713-0.742-0.713-0.587m74.25 1.619c-0.511 0.539-0.61 0.899-0.139 0.509 0.284-0.235 0.781-0.996 0.646-0.988-0.031 2e-3 -0.26 0.218-0.507 0.479m-1.306 1.32c-0.381 0.446-0.452 0.688-0.145 0.499 0.196-0.122 0.674-0.901 0.552-0.901-0.034 0-0.217 0.181-0.407 0.402m-2.155 2.11c-0.379 0.392-0.545 0.658-0.369 0.591 0.275-0.106 1.31-1.303 1.125-1.303-0.036 0-0.377 0.321-0.756 0.712m-65.589 0.229c0 0.23 0.568 0.764 0.679 0.638 0.038-0.044-0.099-0.252-0.305-0.464s-0.374-0.29-0.374-0.174m0.9 0.988c1.018 0.903 1.393 1.167 1.001 0.702-0.218-0.257-0.578-0.561-0.799-0.674s-0.312-0.126-0.202-0.028m62.889 0.595c-0.379 0.398-0.509 0.615-0.289 0.481 0.361-0.22 1.219-1.205 1.049-1.205-0.039 0-0.381 0.326-0.76 0.724m-62.715 7.384c-0.565 0.594-0.88 1.001-0.7 0.904 0.318-0.173 1.078-0.957 1.61-1.662 0.473-0.625 0.138-0.346-0.91 0.758m63.217 0.057c0.434 0.459 0.818 0.835 0.851 0.835 0.181 0-0.476-0.766-1.017-1.185-0.524-0.407-0.497-0.351 0.166 0.35m1.109 0.988c0 0.093 0.334 0.479 0.741 0.858 0.408 0.379 0.615 0.509 0.461 0.289-0.415-0.591-1.202-1.342-1.202-1.147m-66.004 0.552c-0.139 0.167-0.213 0.345-0.164 0.394s0.241-0.088 0.427-0.305c0.185-0.217 0.259-0.394 0.164-0.394-0.096 0-0.288 0.137-0.427 0.305m69.84 3.394c0.239 0.274 0.477 0.454 0.531 0.401 0.121-0.122-0.568-0.9-0.797-0.9-0.092 0 0.028 0.224 0.266 0.499m-75.149 2.151-0.587 0.65 0.65-0.587c0.606-0.548 0.742-0.713 0.587-0.713-0.034 0-0.327 0.293-0.65 0.65m92.511 15.409c2.695 2.718 4.938 4.941 4.987 4.941 0.187 0-8.409-8.672-9.408-9.491-0.263-0.215 1.727 1.833 4.421 4.55m-106.2-1.611c-1.595 1.622-3.507 3.579-4.25 4.351-0.742 0.771 0.604-0.53 2.992-2.891 2.387-2.36 4.3-4.318 4.249-4.35-0.05-0.032-1.396 1.269-2.991 2.89m16.9 37.952c-19.47 19.47-35.31 35.402-35.2 35.404 0.11 1e-3 16.085-15.933 35.5-35.41s35.255-35.409 35.2-35.404c-0.055 6e-3 -16.03 15.94-35.5 35.41m-42.952-12.045c-10.864 10.86-19.752 19.835-19.75 19.946 2e-3 0.208 20.96 21.151 24.518 24.501 1.109 1.044-3.908-3.999-11.15-11.207-7.241-7.208-13.166-13.198-13.166-13.311s8.528-8.721 18.95-19.129c19.996-19.967 20.584-20.558 20.441-20.55-0.05 3e-3 -8.98 8.891-19.843 19.75m139.26-17.355c0.678 0.798 37.412 37.509 37.183 37.16-0.051-0.076-8.61-8.671-19.021-19.1-10.411-10.428-18.584-18.555-18.162-18.06m30.691 43.8c-3.519 3.52-6.308 6.4-6.198 6.4s3.079-2.88 6.598-6.4 6.308-6.4 6.198-6.4-3.079 2.88-6.598 6.4m-14.101 14.137c-5.181 5.211-5.793 5.871-2.699 2.914 5.133-4.907 9.851-9.651 9.596-9.651-0.109 0-3.213 3.032-6.897 6.737" fill="#444c54"/>
 </g>
</svg>
