<?xml version="1.0" encoding="UTF-8"?>
<!-- Created with Inkscape (http://www.inkscape.org/) -->
<svg width="201.5mm" height="201.5mm" version="1.1" viewBox="0 0 201.5 201.5" xmlns="http://www.w3.org/2000/svg" xmlns:xlink="http://www.w3.org/1999/xlink">
 <defs>
  <linearGradient id="linearGradient262" x2="1" gradientTransform="matrix(682.03 0 0 -682.03 1236.2 1621.8)" gradientUnits="userSpaceOnUse">
   <stop stop-color="#50aae3" offset="0"/>
   <stop stop-color="#2d3c92" offset=".795"/>
   <stop stop-color="#2d3c92" offset="1"/>
  </linearGradient>
  <linearGradient id="linearGradient20365" x1="93.446" x2="116.63" y1="110.33" y2="110.33" gradientTransform="matrix(.97925 0 0 .97925 -.66862 3.3814)" gradientUnits="userSpaceOnUse">
   <stop stop-color="#3f73bb" offset="0"/>
   <stop stop-color="#3962ae" offset=".72"/>
   <stop stop-color="#2d3c92" offset="1"/>
  </linearGradient>
 </defs>
 <g transform="translate(-3.312 -2.1871)">
  <g transform="matrix(.39139 0 0 -.39139 168.49 216.22)">
   <path d="m-182.95 268.38-0.93916-3.3944c-4.5764-67.127-82.756 87.87-0.75502-1.5498 44.589-48.623 48.695-43.777 1.5056 2.329l-1.923 1.8788c-47.189 46.106 14.849-69.638 1.9442-4.9397l-0.84531 4.2378c-12.906 64.7 95.499-8.8716 29.525-8.8716" fill="#231f20"/>
  </g>
  <g transform="matrix(.22106 0 0 -.21396 -244.17 448.98)">
   <path d="m1484.9 2074.7c-18.697 0-34.663-10.947-44.734-25.353-10.07-14.406-15.495-32.76-15.495-52.696v-57.065h-188.46v-70.41h682.03v70.41h-188.46v57.065c0 19.935-5.4244 38.29-15.496 52.696-10.07 14.406-26.036 25.353-44.734 25.353zm-22.536-78.048c0 12.863 3.8013 24.108 8.6906 31.103 4.8916 6.9951 9.6159 9.2447 13.845 9.2447h184.64c4.2305 0 8.9559-2.2496 13.845-9.2447 4.8905-6.9951 8.6918-18.24 8.6918-31.103v-57.065h-229.72zm420.67-144.86m-611.63-0.2096 38.227-682.85 76.448 0.151h38.228l38.229 0.074h38.227l267.58 0.524 38.228 0.076 38.228 0.074s38.195 681.96 38.228 682.17z" fill="url(#linearGradient262)"/>
  </g>
  <g>
   <path d="m165.14 104.75c-1.3338-6.1536-6.5004-11.035-14.306-14.384 4.0697 3.0585 6.7484 6.7739 7.6794 11.069 3.9487 18.217-25.024 39.959-64.712 48.561-8.3904 1.8185-12.415 1.9114-19.629 3.0071 0.43219 0.58771-0.42803-0.58424 0.33394 0.45199 6.5965 10.108 15.517 19.511 27.556 25.798 16.339-8.5327 26.939-22.801 33.772-36.787-6.6588 1.8875-13.747 2.7903-13.747 2.7903l1e-3 -4.9e-4c27.756-9.7544 46.134-26.279 43.05-40.506" fill="#231f20"/>
   <path d="m144.5 118.86c2.6423-10.051 3.3007-17.104 3.3007-17.104l-45.741-26.285-45.741 26.285s1.2791 13.706 7.4305 30.135l4.97e-4 -4.9e-4s11.785 5.6172 24.652 6.0714c-20.08 1.8922-35.724-2.6344-39.623-13.052-0.79642-2.129-1.0604-4.3948-0.83823-6.7521-2.4966 4.9556-3.1547 9.7344-1.581 13.94 5.4472 14.557 35.573 16.738 67.288 4.8705 15.332-5.737 21.759-8.09 30.376-16.438-1.9011 1.3444-0.33377 0.9138 0.47627-1.6701" fill="#231f20"/>
   <path d="m97.949 97.372c-5.8991 2.6862-7.4793 10.956-3.0022 15.696l1.8435 2.0015-3.0022 5.6358-2.9496 5.6885h11.324c6.2678 0 11.377-0.10527 11.377-0.26337 0-0.158-1.3168-2.6862-2.8969-5.6358l-2.8969-5.3198 1.7908-2.0015c1.6855-1.7908 2.9496-4.793 2.9496-6.7945 0-1.7908-1.1588-4.793-2.4755-6.3732-2.8969-3.4236-7.9006-4.5297-12.062-2.6335z" fill="url(#linearGradient20365)" stroke-width=".052671"/>
  </g>
 </g>
</svg>
