<svg width="280px" height="270px" viewBox="0 0 28 27" fill="none" xmlns="http://www.w3.org/2000/svg">
<path d="M25.1067 10.3733H25.0667C24.7488 10.3714 24.4386 10.2755 24.1752 10.0975C23.9118 9.91953 23.707 9.66755 23.5867 9.37333C23.5867 9.3698 23.5853 9.36641 23.5828 9.3639C23.5803 9.3614 23.5769 9.36 23.5734 9.36C23.4547 9.06673 23.4244 8.74521 23.4859 8.43492C23.5475 8.12462 23.6984 7.83907 23.92 7.61333L23.96 7.57333C24.3762 7.1555 24.6099 6.58977 24.6099 6C24.6099 5.41023 24.3762 4.8445 23.96 4.42667L22.9067 3.38667C22.4889 2.97044 21.9231 2.73675 21.3334 2.73675C20.7436 2.73675 20.1779 2.97044 19.76 3.38667L19.7467 3.41333C19.5158 3.63575 19.2249 3.7858 18.9098 3.84503C18.5948 3.90425 18.2692 3.87006 17.9734 3.74667C17.6751 3.63068 17.4188 3.42735 17.238 3.16328C17.0571 2.89921 16.9603 2.5867 16.96 2.26667V2.22667C16.9611 1.93508 16.9046 1.64615 16.7939 1.37639C16.6832 1.10664 16.5205 0.861345 16.3149 0.654544C16.1093 0.447744 15.865 0.283491 15.5959 0.171179C15.3269 0.0588675 15.0383 0.000699028 14.7467 0H13.2534C12.9618 0.000699028 12.6732 0.0588675 12.4041 0.171179C12.135 0.283491 11.8907 0.447744 11.6851 0.654544C11.4796 0.861345 11.3168 1.10664 11.2061 1.37639C11.0954 1.64615 11.039 1.93508 11.04 2.22667V2.26667C11.0394 2.58483 10.9439 2.89557 10.7658 3.1592C10.5876 3.42282 10.335 3.62736 10.04 3.74667C9.83876 3.83664 9.62046 3.88212 9.40002 3.88C9.18971 3.88052 8.98136 3.83956 8.7869 3.75949C8.59243 3.67941 8.41565 3.56179 8.26669 3.41333L8.24002 3.38667C7.82219 2.97044 7.25645 2.73675 6.66669 2.73675C6.07692 2.73675 5.51118 2.97044 5.09335 3.38667L4.04002 4.42667C3.6238 4.8445 3.3901 5.41023 3.3901 6C3.3901 6.58977 3.6238 7.1555 4.04002 7.57333L4.08002 7.61333C4.30349 7.84073 4.45502 8.12891 4.51569 8.44191C4.57636 8.75491 4.54349 9.07884 4.42117 9.37326C4.29885 9.66768 4.0925 9.91955 3.8279 10.0974C3.5633 10.2753 3.25217 10.3712 2.93335 10.3733H2.89335C2.30313 10.3744 1.73738 10.6093 1.32003 11.0267C0.902679 11.444 0.667744 12.0098 0.666687 12.6V14.08C0.667744 14.6702 0.902679 15.236 1.32003 15.6533C1.73738 16.0707 2.30313 16.3056 2.89335 16.3067H2.93335C3.25225 16.304 3.56445 16.3982 3.8287 16.5768C4.09295 16.7553 4.29681 17.0098 4.41335 17.3067C4.53421 17.603 4.56704 17.9279 4.50792 18.2424C4.4488 18.557 4.30023 18.8478 4.08002 19.08L4.05335 19.0933C3.63696 19.5138 3.40336 20.0816 3.40336 20.6733C3.40336 21.2651 3.63696 21.8329 4.05335 22.2533L5.09335 23.2933C5.51118 23.7096 6.07692 23.9433 6.66669 23.9433C7.25645 23.9433 7.82219 23.7096 8.24002 23.2933L8.26669 23.2667C8.48934 23.0402 8.77504 22.8859 9.08658 22.8241C9.39813 22.7623 9.72107 22.7957 10.0134 22.92C10.3139 23.0381 10.5723 23.2434 10.7553 23.5095C10.9382 23.7756 11.0374 24.0904 11.04 24.4133V24.4533C11.0393 24.7442 11.0961 25.0323 11.2071 25.3012C11.318 25.57 11.4811 25.8143 11.6867 26.02C11.8924 26.2256 12.1367 26.3886 12.4055 26.4996C12.6744 26.6106 12.9625 26.6674 13.2534 26.6667H14.7467C15.0375 26.6674 15.3257 26.6106 15.5945 26.4996C15.8634 26.3886 16.1077 26.2256 16.3133 26.02C16.519 25.8143 16.682 25.57 16.793 25.3012C16.904 25.0323 16.9607 24.7442 16.96 24.4533V24.4133C16.9627 24.0904 17.0618 23.7756 17.2448 23.5095C17.4277 23.2434 17.6861 23.0381 17.9867 22.92C18.279 22.7957 18.6019 22.7623 18.9135 22.8241C19.225 22.8859 19.5107 23.0402 19.7334 23.2667L19.76 23.2933C20.1779 23.7096 20.7436 23.9433 21.3334 23.9433C21.9231 23.9433 22.4889 23.7096 22.9067 23.2933L23.9467 22.2533C24.3631 21.8329 24.5967 21.2651 24.5967 20.6733C24.5967 20.0816 24.3631 19.5138 23.9467 19.0933L23.92 19.08C23.6998 18.8478 23.5512 18.557 23.4921 18.2424C23.433 17.9279 23.4658 17.603 23.5867 17.3067C23.7032 17.0098 23.9071 16.7553 24.1713 16.5768C24.4356 16.3982 24.7478 16.304 25.0667 16.3067H25.1067C25.6969 16.3056 26.2627 16.0707 26.68 15.6533C27.0974 15.236 27.3323 14.6702 27.3334 14.08V12.6C27.3323 12.0098 27.0974 11.444 26.68 11.0267C26.2627 10.6093 25.6969 10.3744 25.1067 10.3733ZM14 18C13.077 18 12.1748 17.7263 11.4074 17.2135C10.6399 16.7007 10.0418 15.9719 9.68858 15.1192C9.33537 14.2665 9.24296 13.3282 9.42302 12.4229C9.60309 11.5177 10.0475 10.6861 10.7002 10.0335C11.3528 9.38086 12.1844 8.9364 13.0896 8.75633C13.9948 8.57627 14.9332 8.66869 15.7859 9.02189C16.6386 9.3751 17.3674 9.97324 17.8802 10.7407C18.393 11.5081 18.6667 12.4104 18.6667 13.3333C18.6667 14.571 18.175 15.758 17.2999 16.6332C16.4247 17.5083 15.2377 18 14 18Z" fill="white"/>
</svg>
