<?xml version="1.0" encoding="UTF-8" standalone="no"?>
<!-- Created with Inkscape (http://www.inkscape.org/) -->

<svg
   width="147.78082mm"
   height="98.908142mm"
   viewBox="0 0 147.78082 98.908142"
   version="1.1"
   id="svg1"
   inkscape:version="1.4 (e7c3feb100, 2024-10-09)"
   sodipodi:docname="down_arrow.svg"
   xmlns:inkscape="http://www.inkscape.org/namespaces/inkscape"
   xmlns:sodipodi="http://sodipodi.sourceforge.net/DTD/sodipodi-0.dtd"
   xmlns="http://www.w3.org/2000/svg"
   xmlns:svg="http://www.w3.org/2000/svg">
  <sodipodi:namedview
     id="namedview1"
     pagecolor="#505050"
     bordercolor="#eeeeee"
     borderopacity="1"
     inkscape:showpageshadow="0"
     inkscape:pageopacity="0"
     inkscape:pagecheckerboard="0"
     inkscape:deskcolor="#505050"
     inkscape:document-units="mm"
     inkscape:zoom="1.104894"
     inkscape:cx="503.66821"
     inkscape:cy="243.00973"
     inkscape:window-width="1900"
     inkscape:window-height="1028"
     inkscape:window-x="0"
     inkscape:window-y="0"
     inkscape:window-maximized="1"
     inkscape:current-layer="g1" />
  <defs
     id="defs1">
    <clipPath
       id="clip0_2438_31">
      <rect
         width="21"
         height="18"
         fill="#ffffff"
         id="rect1"
         x="0"
         y="0" />
    </clipPath>
  </defs>
  <g
     inkscape:label="Calque 1"
     inkscape:groupmode="layer"
     id="layer1"
     transform="translate(-0.42856494,-0.67058498)">
    <g
       clip-path="url(#clip0_2438_31)"
       id="g1"
       transform="matrix(7.8756961,0,0,6.1699122,-8.3758292,-11.479692)"
       style="fill:#e6e6e6">
      <path
         fill-rule="evenodd"
         clip-rule="evenodd"
         d="m 18.3682,18 c 1.1667,0 1.8935,-1.2655 1.3057,-2.2733 L 12.2276,2.96154 c -0.7718,-1.32302 -2.6834,-1.32301 -3.45515,0 L 1.32611,15.7267 C 0.738269,16.7345 1.46516,18 2.6318,18 3.16944,18 3.66661,17.7144 3.9375,17.25 L 8.77245,8.96154 c 0.77176,-1.32301 2.68335,-1.32302 3.45515,0 L 17.0625,17.25 c 0.2709,0.4644 0.7681,0.75 1.3057,0.75 z"
         fill="#13121c"
         id="path1"
         style="fill:#e6e6e6" />
    </g>
  </g>
</svg>
